<svg width="249" height="354" viewBox="0 0 249 354" fill="none" xmlns="http://www.w3.org/2000/svg">
<path d="M0 55H188V311.664C188 334.902 169.295 353.74 146.222 353.74H41.7778C18.7045 353.74 0 334.902 0 311.664V55Z" fill="url(#paint0_linear_72_1195)" fill-opacity="0.3"/>
<g filter="url(#filter0_b_72_1195)">
<path d="M13 55H175.247V309.276C175.247 326.721 161.142 340.863 143.742 340.863H44.5042C27.1049 340.863 13 326.721 13 309.276V55Z" fill="url(#paint1_linear_72_1195)"/>
</g>
<circle cx="124.5" cy="218.5" r="4.5" fill="white" fill-opacity="0.5"/>
<circle cx="80.5" cy="157.5" r="4.5" fill="white" fill-opacity="0.5"/>
<circle cx="147.5" cy="102.5" r="4.5" fill="white" fill-opacity="0.5"/>
<circle cx="27.5" cy="243.5" r="4.5" fill="white" fill-opacity="0.5"/>
<circle cx="115.5" cy="318.5" r="4.5" fill="white" fill-opacity="0.5"/>
<mask id="path-8-inside-1_72_1195" fill="white">
<path fill-rule="evenodd" clip-rule="evenodd" d="M115.81 89.9075C106.701 98.0499 94.6788 103 81.5 103C63.928 103 48.4116 94.1995 39.1177 80.7655C36.3849 81.5689 33.4928 82 30.5 82C13.6553 82 0 68.3447 0 51.5C0 34.6553 13.6553 21 30.5 21C33.4928 21 36.3849 21.4311 39.1177 22.2345C48.4116 8.80052 63.928 0 81.5 0C94.6788 0 106.701 4.95015 115.81 13.0925C116.699 13.0312 117.596 13 118.5 13C128.803 13 138.161 17.0474 145.071 23.639C148.867 21.943 153.073 21 157.5 21C174.345 21 188 34.6553 188 51.5C188 68.3447 174.345 82 157.5 82C153.073 82 148.867 81.057 145.071 79.361C138.161 85.9526 128.803 90 118.5 90C117.596 90 116.699 89.9688 115.81 89.9075Z"/>
</mask>
<path fill-rule="evenodd" clip-rule="evenodd" d="M115.81 89.9075C106.701 98.0499 94.6788 103 81.5 103C63.928 103 48.4116 94.1995 39.1177 80.7655C36.3849 81.5689 33.4928 82 30.5 82C13.6553 82 0 68.3447 0 51.5C0 34.6553 13.6553 21 30.5 21C33.4928 21 36.3849 21.4311 39.1177 22.2345C48.4116 8.80052 63.928 0 81.5 0C94.6788 0 106.701 4.95015 115.81 13.0925C116.699 13.0312 117.596 13 118.5 13C128.803 13 138.161 17.0474 145.071 23.639C148.867 21.943 153.073 21 157.5 21C174.345 21 188 34.6553 188 51.5C188 68.3447 174.345 82 157.5 82C153.073 82 148.867 81.057 145.071 79.361C138.161 85.9526 128.803 90 118.5 90C117.596 90 116.699 89.9688 115.81 89.9075Z" fill="#FFFCE3" fill-opacity="0.18"/>
<path d="M115.81 89.9075L115.879 88.9099L115.458 88.8808L115.143 89.1619L115.81 89.9075ZM39.1177 80.7655L39.9401 80.1966L39.5289 79.6023L38.8356 79.8061L39.1177 80.7655ZM39.1177 22.2345L38.8356 23.1939L39.5289 23.3977L39.9401 22.8034L39.1177 22.2345ZM115.81 13.0925L115.143 13.8381L115.458 14.1192L115.879 14.0901L115.81 13.0925ZM145.071 23.639L144.381 24.3626L144.866 24.8258L145.479 24.552L145.071 23.639ZM145.071 79.361L145.479 78.448L144.866 78.1742L144.381 78.6374L145.071 79.361ZM115.143 89.1619C106.211 97.1468 94.4235 102 81.5 102V104C94.934 104 107.192 98.9529 116.476 90.653L115.143 89.1619ZM81.5 102C64.2701 102 49.0552 93.3721 39.9401 80.1966L38.2953 81.3345C47.768 95.0268 63.586 104 81.5 104V102ZM38.8356 79.8061C36.1935 80.5829 33.3963 81 30.5 81V83C33.5893 83 36.5763 82.555 39.3997 81.7249L38.8356 79.8061ZM30.5 81C14.2076 81 1 67.7924 1 51.5H-1C-1 68.897 13.103 83 30.5 83V81ZM1 51.5C1 35.2076 14.2076 22 30.5 22V20C13.103 20 -1 34.103 -1 51.5H1ZM30.5 22C33.3963 22 36.1935 22.4171 38.8356 23.1939L39.3997 21.2751C36.5763 20.445 33.5893 20 30.5 20V22ZM39.9401 22.8034C49.0552 9.62786 64.2701 1 81.5 1V-1C63.586 -1 47.768 7.97319 38.2953 21.6655L39.9401 22.8034ZM81.5 1C94.4235 1 106.211 5.8532 115.143 13.8381L116.476 12.347C107.192 4.04709 94.934 -1 81.5 -1V1ZM115.879 14.0901C116.745 14.0304 117.619 14 118.5 14V12C117.573 12 116.653 12.032 115.741 12.0949L115.879 14.0901ZM118.5 14C128.536 14 137.65 17.9413 144.381 24.3626L145.761 22.9155C138.673 16.1535 129.071 12 118.5 12V14ZM145.479 24.552C149.149 22.9122 153.217 22 157.5 22V20C152.93 20 148.585 20.9737 144.663 22.726L145.479 24.552ZM157.5 22C173.792 22 187 35.2076 187 51.5H189C189 34.103 174.897 20 157.5 20V22ZM187 51.5C187 67.7924 173.792 81 157.5 81V83C174.897 83 189 68.897 189 51.5H187ZM157.5 81C153.217 81 149.149 80.0878 145.479 78.448L144.663 80.274C148.585 82.0263 152.93 83 157.5 83V81ZM144.381 78.6374C137.65 85.0587 128.536 89 118.5 89V91C129.071 91 138.673 86.8465 145.761 80.0845L144.381 78.6374ZM118.5 89C117.619 89 116.745 88.9696 115.879 88.9099L115.741 90.9051C116.653 90.968 117.573 91 118.5 91V89Z" fill="white" fill-opacity="0.1" mask="url(#path-8-inside-1_72_1195)"/>
<path fill-rule="evenodd" clip-rule="evenodd" d="M229 108H188V131H215C220.523 131 225 135.477 225 141V248C225 253.523 220.523 258 215 258H188V280H229C240.046 280 249 271.046 249 260V128C249 116.954 240.046 108 229 108Z" fill="url(#paint2_linear_72_1195)" fill-opacity="0.2"/>
<rect x="27" y="115" width="38" height="187" rx="19" fill="#865E11" fill-opacity="0.2"/>
<rect x="75" y="115" width="39" height="187" rx="19.5" fill="#865E11" fill-opacity="0.2"/>
<rect x="124" y="115" width="38" height="187" rx="19" fill="#865E11" fill-opacity="0.2"/>
<defs>
<filter id="filter0_b_72_1195" x="-87" y="-45" width="362.247" height="485.863" filterUnits="userSpaceOnUse" color-interpolation-filters="sRGB">
<feFlood flood-opacity="0" result="BackgroundImageFix"/>
<feGaussianBlur in="BackgroundImageFix" stdDeviation="50"/>
<feComposite in2="SourceAlpha" operator="in" result="effect1_backgroundBlur_72_1195"/>
<feBlend mode="normal" in="SourceGraphic" in2="effect1_backgroundBlur_72_1195" result="shape"/>
</filter>
<linearGradient id="paint0_linear_72_1195" x1="94" y1="55" x2="94" y2="353.74" gradientUnits="userSpaceOnUse">
<stop stop-color="white" stop-opacity="0.54"/>
<stop offset="1" stop-color="white"/>
</linearGradient>
<linearGradient id="paint1_linear_72_1195" x1="94.1233" y1="-11.5" x2="94.1233" y2="340.863" gradientUnits="userSpaceOnUse">
<stop offset="0.536777" stop-color="#F4BD49"/>
<stop offset="1" stop-color="#C45204"/>
</linearGradient>
<linearGradient id="paint2_linear_72_1195" x1="249" y1="187.5" x2="188" y2="187.5" gradientUnits="userSpaceOnUse">
<stop stop-color="white"/>
<stop offset="1" stop-color="white" stop-opacity="0.4"/>
</linearGradient>
</defs>
</svg>
