<svg width="136" height="370" viewBox="0 0 136 370" fill="none" xmlns="http://www.w3.org/2000/svg">
<path d="M0 370C0 358.954 8.95431 350 20 350H116C127.046 350 136 358.954 136 370H0Z" fill="url(#paint0_linear_62_849)" fill-opacity="0.2"/>
<path d="M61 239C61 239 65.2663 239.5 68 239.5C70.7337 239.5 75 239 75 239V350H61V239Z" fill="url(#paint1_linear_62_849)" fill-opacity="0.2"/>
<path d="M4 0H130V177C130 211.794 101.794 240 67 240C32.2061 240 4 211.794 4 177V0Z" fill="url(#paint2_linear_62_849)" fill-opacity="0.2"/>
<path d="M21 0H115V178C115 203.957 93.9574 225 68 225C42.0426 225 21 203.957 21 178V0Z" fill="url(#paint3_linear_62_849)"/>
<circle cx="84.5" cy="145.5" r="3.5" fill="white" fill-opacity="0.5"/>
<circle cx="81.5" cy="70.5" r="3.5" fill="white" fill-opacity="0.5"/>
<circle cx="61.5" cy="40.5" r="3.5" fill="white" fill-opacity="0.5"/>
<circle cx="65.5" cy="186.5" r="3.5" fill="white" fill-opacity="0.5"/>
<defs>
<linearGradient id="paint0_linear_62_849" x1="68" y1="350" x2="68" y2="405.294" gradientUnits="userSpaceOnUse">
<stop stop-color="white" stop-opacity="0.92"/>
<stop offset="1" stop-color="white" stop-opacity="0"/>
</linearGradient>
<linearGradient id="paint1_linear_62_849" x1="68" y1="151.944" x2="68" y2="350" gradientUnits="userSpaceOnUse">
<stop stop-color="white" stop-opacity="0"/>
<stop offset="0.65625" stop-color="white"/>
<stop offset="0.989583" stop-color="white" stop-opacity="0.53"/>
</linearGradient>
<linearGradient id="paint2_linear_62_849" x1="67" y1="0" x2="67" y2="240" gradientUnits="userSpaceOnUse">
<stop stop-color="white" stop-opacity="0.68"/>
<stop offset="1" stop-color="white"/>
</linearGradient>
<linearGradient id="paint3_linear_62_849" x1="68" y1="0" x2="68" y2="225" gradientUnits="userSpaceOnUse">
<stop stop-color="#FFE175"/>
<stop offset="0.708333" stop-color="#EC86AB"/>
</linearGradient>
</defs>
</svg>
