<svg width="169" height="272" viewBox="0 0 169 272" fill="none" xmlns="http://www.w3.org/2000/svg">
<path d="M0 55.0001H168.058L159.759 160.113C159.759 178.834 144.689 194.011 126.101 194.011H41.9568C23.3682 194.011 8.29915 178.834 8.29915 160.113L0 55.0001Z" fill="url(#paint0_linear_72_1840)" fill-opacity="0.3"/>
<g filter="url(#filter0_b_72_1840)">
<path d="M10.3739 55.0001H157.684L149.385 158.189C149.385 172.244 138.021 183.637 124.004 183.637H44.0539C30.0365 183.637 18.673 172.244 18.673 158.189L10.3739 55.0001Z" fill="url(#paint1_linear_72_1840)"/>
</g>
<path d="M111.886 122.688C113.516 119.855 117.134 118.88 119.967 120.511L139.728 131.883C142.561 133.513 143.536 137.132 141.906 139.965L130.392 159.972C128.761 162.805 125.143 163.78 122.31 162.149L102.549 150.777C99.7162 149.147 98.7413 145.528 100.372 142.695L111.886 122.688Z" fill="#DDFFFF" fill-opacity="0.2"/>
<path fill-rule="evenodd" clip-rule="evenodd" d="M139.517 132.249L119.756 120.877C117.126 119.363 113.766 120.268 112.252 122.899L100.738 142.906C99.2242 145.537 100.129 148.897 102.76 150.41L122.521 161.783C125.152 163.297 128.512 162.391 130.025 159.761L141.539 139.754C143.053 137.123 142.148 133.763 139.517 132.249ZM119.967 120.511C117.134 118.88 113.516 119.855 111.886 122.688L100.372 142.695C98.7413 145.528 99.7162 149.147 102.549 150.777L122.31 162.149C125.143 163.78 128.761 162.805 130.392 159.972L141.906 139.965C143.536 137.132 142.561 133.513 139.728 131.883L119.967 120.511Z" fill="white" fill-opacity="0.15"/>
<path d="M71.4928 120.604C71.9167 117.363 74.8877 115.079 78.1287 115.503L100.736 118.46C103.977 118.884 106.261 121.855 105.837 125.096L102.843 147.985C102.419 151.226 99.4477 153.509 96.2067 153.086L73.5996 150.128C70.3586 149.705 68.0749 146.733 68.4988 143.492L71.4928 120.604Z" fill="#DDFFFF" fill-opacity="0.2"/>
<path fill-rule="evenodd" clip-rule="evenodd" d="M100.681 118.879L78.0739 115.922C75.0644 115.529 72.3056 117.649 71.9119 120.659L68.918 143.547C68.5243 146.557 70.6449 149.316 73.6544 149.709L96.2616 152.666C99.2711 153.06 102.03 150.939 102.424 147.93L105.417 125.041C105.811 122.032 103.691 119.273 100.681 118.879ZM78.1287 115.503C74.8877 115.079 71.9167 117.363 71.4928 120.604L68.4988 143.492C68.0749 146.733 70.3586 149.705 73.5996 150.128L96.2067 153.086C99.4477 153.509 102.419 151.226 102.843 147.985L105.837 125.096C106.261 121.855 103.977 118.884 100.736 118.46L78.1287 115.503Z" fill="white" fill-opacity="0.15"/>
<path d="M38.9028 104.185C37.9074 101.072 39.6243 97.741 42.7377 96.7456L64.4545 89.8022C67.5678 88.8068 70.8986 90.5238 71.894 93.6371L78.9238 115.624C79.9193 118.738 78.2023 122.068 75.089 123.064L53.3722 130.007C50.2589 131.003 46.9281 129.286 45.9326 126.172L38.9028 104.185Z" fill="#DDFFFF" fill-opacity="0.2"/>
<path fill-rule="evenodd" clip-rule="evenodd" d="M64.4827 90.3514L42.7659 97.2948C39.875 98.2191 38.2807 101.312 39.205 104.203L46.2348 126.19C47.1592 129.081 50.252 130.675 53.143 129.751L74.8598 122.808C77.7508 121.883 79.345 118.791 78.4207 115.9L71.3909 93.9123C70.4666 91.0214 67.3737 89.4271 64.4827 90.3514ZM42.6372 96.8921C39.5239 97.8875 37.8069 101.218 38.8023 104.332L45.8322 126.319C46.8276 129.432 50.1584 131.149 53.2717 130.154L74.9885 123.21C78.1019 122.215 79.8188 118.884 78.8234 115.771L71.7936 93.7836C70.7981 90.6702 67.4673 88.9533 64.354 89.9487L42.6372 96.8921Z" fill="white" fill-opacity="0.15"/>
<path d="M81.8866 143.412C82.7325 140.254 85.9778 138.381 89.135 139.227L111.277 145.16C114.434 146.006 116.307 149.251 115.462 152.408L109.529 174.55C108.683 177.707 105.437 179.58 102.28 178.735L80.1386 172.802C76.9814 171.956 75.1078 168.71 75.9537 165.553L81.8866 143.412Z" fill="#DDFFFF" fill-opacity="0.2"/>
<path fill-rule="evenodd" clip-rule="evenodd" d="M111.167 145.568L89.0256 139.635C86.0939 138.85 83.0804 140.589 82.2949 143.521L76.3621 165.663C75.5765 168.594 77.3163 171.608 80.248 172.393L102.39 178.326C105.321 179.112 108.335 177.372 109.12 174.44L115.053 152.299C115.839 149.367 114.099 146.353 111.167 145.568ZM89.135 139.227C85.9778 138.381 82.7325 140.254 81.8866 143.412L75.9537 165.553C75.1078 168.71 76.9814 171.956 80.1386 172.802L102.28 178.735C105.437 179.58 108.683 177.707 109.529 174.55L115.462 152.408C116.307 149.251 114.434 146.006 111.277 145.16L89.135 139.227Z" fill="white" fill-opacity="0.15"/>
<path d="M61.2652 137.133C64.0395 135.405 67.6896 136.253 69.4179 139.027L81.5382 158.484C83.2665 161.258 82.4185 164.908 79.6442 166.636L60.1879 178.757C57.4136 180.485 53.7635 179.637 52.0352 176.863L39.9149 157.406C38.1866 154.632 39.0346 150.982 41.8089 149.254L61.2652 137.133Z" fill="#DDFFFF" fill-opacity="0.2"/>
<path fill-rule="evenodd" clip-rule="evenodd" d="M81.1794 158.707L69.0591 139.251C67.4542 136.675 64.0649 135.887 61.4887 137.492L42.0324 149.612C39.4563 151.217 38.6689 154.607 40.2737 157.183L52.394 176.639C53.9988 179.215 57.3882 180.003 59.9644 178.398L79.4206 166.278C81.9968 164.673 82.7842 161.283 81.1794 158.707ZM69.4179 139.027C67.6896 136.253 64.0395 135.405 61.2652 137.133L41.8089 149.254C39.0346 150.982 38.1866 154.632 39.9149 157.406L52.0352 176.863C53.7635 179.637 57.4136 180.485 60.1879 178.757L79.6442 166.636C82.4185 164.908 83.2665 161.258 81.5382 158.484L69.4179 139.027Z" fill="white" fill-opacity="0.15"/>
<path d="M53.3015 111.753C56.4853 111.014 59.6659 112.995 60.4056 116.179L65.5932 138.507C66.3329 141.691 64.3515 144.871 61.1677 145.611L38.8397 150.798C35.6559 151.538 32.4753 149.557 31.7356 146.373L26.5481 124.045C25.8084 120.861 27.7897 117.681 30.9735 116.941L53.3015 111.753Z" fill="#DDFFFF" fill-opacity="0.2"/>
<path fill-rule="evenodd" clip-rule="evenodd" d="M65.1814 138.602L59.9939 116.274C59.307 113.318 56.3536 111.478 53.3972 112.165L31.0692 117.353C28.1128 118.039 26.273 120.993 26.9598 123.949L32.1474 146.277C32.8342 149.234 35.7877 151.073 38.7441 150.387L61.072 145.199C64.0284 144.512 65.8682 141.559 65.1814 138.602ZM60.4056 116.179C59.6659 112.995 56.4853 111.014 53.3015 111.753L30.9735 116.941C27.7897 117.681 25.8084 120.861 26.5481 124.045L31.7356 146.373C32.4753 149.557 35.6559 151.538 38.8397 150.798L61.1677 145.611C64.3515 144.871 66.3329 141.691 65.5932 138.507L60.4056 116.179Z" fill="white" fill-opacity="0.15"/>
<path d="M135.496 29.4272C142.967 37.0199 147.116 47.2696 147.03 57.9216C146.945 68.5735 142.631 78.7551 135.038 86.2265C127.445 93.6979 117.196 97.8471 106.544 97.7614C95.8919 97.6756 85.7103 93.3618 78.2389 85.7691L106.867 57.5982L135.496 29.4272Z" fill="#DDD400" fill-opacity="0.7"/>
<path d="M131.331 33.5242C137.716 40.0125 141.262 48.7714 141.188 57.874C141.115 66.9766 137.429 75.6772 130.94 82.0618C124.452 88.4465 115.693 91.9922 106.591 91.9189C97.4881 91.8456 88.7875 88.1593 82.4028 81.671L106.867 57.5976L131.331 33.5242Z" fill="#ECE653" fill-opacity="0.7"/>
<mask id="mask0_72_1840" style="mask-type:alpha" maskUnits="userSpaceOnUse" x="82" y="33" width="60" height="59">
<mask id="path-17-inside-1_72_1840" fill="white">
<path d="M131.331 33.5242C137.716 40.0125 141.262 48.7714 141.188 57.874C141.115 66.9766 137.429 75.6772 130.94 82.0618C124.452 88.4465 115.693 91.9922 106.591 91.9189C97.4881 91.8456 88.7875 88.1593 82.4028 81.671L106.867 57.5976L131.331 33.5242Z"/>
</mask>
<path d="M131.331 33.5242C137.716 40.0125 141.262 48.7714 141.188 57.874C141.115 66.9766 137.429 75.6772 130.94 82.0618C124.452 88.4465 115.693 91.9922 106.591 91.9189C97.4881 91.8456 88.7875 88.1593 82.4028 81.671L106.867 57.5976L131.331 33.5242Z" fill="#FFE380" stroke="white" stroke-width="4" mask="url(#path-17-inside-1_72_1840)"/>
</mask>
<g mask="url(#mask0_72_1840)">
<path d="M84.3387 33.6626L106.23 54.077L115.441 25.5965L108.708 54.7623L137.978 48.4992L109.353 57.2505L129.412 79.468L107.521 59.0535L98.3096 87.534L105.043 58.3682L75.7728 64.6313L104.398 55.88L84.3387 33.6626Z" fill="white"/>
</g>
<path d="M34 271.824C34 264.189 40.189 258 47.8235 258H114.176C121.811 258 128 264.189 128 271.824H34Z" fill="url(#paint2_linear_72_1840)" fill-opacity="0.3"/>
<path d="M74 194C74 194 78.2663 194.288 81 194.288C83.7337 194.288 88 194 88 194V258H74V194Z" fill="url(#paint3_linear_72_1840)" fill-opacity="0.3"/>
<defs>
<filter id="filter0_b_72_1840" x="-89.6261" y="-44.9999" width="347.31" height="328.637" filterUnits="userSpaceOnUse" color-interpolation-filters="sRGB">
<feFlood flood-opacity="0" result="BackgroundImageFix"/>
<feGaussianBlur in="BackgroundImageFix" stdDeviation="50"/>
<feComposite in2="SourceAlpha" operator="in" result="effect1_backgroundBlur_72_1840"/>
<feBlend mode="normal" in="SourceGraphic" in2="effect1_backgroundBlur_72_1840" result="shape"/>
</filter>
<linearGradient id="paint0_linear_72_1840" x1="84.0288" y1="55.0001" x2="84.0288" y2="194.011" gradientUnits="userSpaceOnUse">
<stop stop-color="white" stop-opacity="0.6"/>
<stop offset="1" stop-color="white"/>
</linearGradient>
<linearGradient id="paint1_linear_72_1840" x1="84.0288" y1="-46.6644" x2="84.0288" y2="183.637" gradientUnits="userSpaceOnUse">
<stop stop-color="#FFD910"/>
<stop offset="1" stop-color="#0CAEAE"/>
</linearGradient>
<linearGradient id="paint2_linear_72_1840" x1="81" y1="258" x2="81" y2="296.218" gradientUnits="userSpaceOnUse">
<stop stop-color="white" stop-opacity="0.92"/>
<stop offset="1" stop-color="white" stop-opacity="0"/>
</linearGradient>
<linearGradient id="paint3_linear_72_1840" x1="81" y1="143.806" x2="81" y2="258" gradientUnits="userSpaceOnUse">
<stop stop-color="white" stop-opacity="0"/>
<stop offset="0.65625" stop-color="white"/>
<stop offset="0.989583" stop-color="white" stop-opacity="0.53"/>
</linearGradient>
</defs>
</svg>
