<svg width="217" height="333" viewBox="0 0 217 333" fill="none" xmlns="http://www.w3.org/2000/svg">
<path fill-rule="evenodd" clip-rule="evenodd" d="M133.264 11.6941C149.007 -4.04876 60.0198 -3.20944 74.9232 11.6941C97.2289 33.9999 74.9232 114.72 74.9232 114.72C32.0421 127.404 0.782227 166.776 0.782227 213.382C0.782227 270.24 47.3083 316.333 104.701 316.333C162.094 316.333 208.62 270.24 208.62 213.382C208.62 166.337 176.768 126.662 133.264 114.368C133.264 114.368 109 35.9577 133.264 11.6941Z" fill="url(#paint0_linear_90_1158)" fill-opacity="0.6"/>
<path d="M66.2654 313.472C66.2654 311.311 68.004 309.56 70.1488 309.56H142.101C144.245 309.56 145.984 311.311 145.984 313.472V328.424C145.984 330.585 144.245 332.336 142.101 332.336H70.1488C68.004 332.336 66.2654 330.585 66.2654 328.424V313.472Z" fill="#483A6E"/>
<path d="M165.699 307.992C165.699 305.831 167.273 304.08 169.215 304.08H202.042C203.984 304.08 205.559 305.831 205.559 307.992V322.944C205.559 325.105 203.984 326.856 202.042 326.856H169.215C167.273 326.856 165.699 325.105 165.699 322.944V307.992Z" fill="#483A6E"/>
<path d="M154.311 249.985H216.947V301.156C216.947 309.061 209.942 315.468 201.302 315.468H169.956C161.316 315.468 154.311 309.061 154.311 301.156V249.985Z" fill="url(#paint1_linear_90_1158)"/>
<defs>
<linearGradient id="paint0_linear_90_1158" x1="76.1386" y1="36.3788" x2="169.969" y2="308.45" gradientUnits="userSpaceOnUse">
<stop stop-color="#B7A0F5"/>
<stop offset="1" stop-color="#E5DFF5"/>
</linearGradient>
<linearGradient id="paint1_linear_90_1158" x1="154.311" y1="249.985" x2="202.034" y2="310.326" gradientUnits="userSpaceOnUse">
<stop stop-color="#DBCEFF"/>
<stop offset="1" stop-color="#8574B2"/>
</linearGradient>
</defs>
</svg>
