<svg width="166" height="375" viewBox="0 0 166 375" fill="none" xmlns="http://www.w3.org/2000/svg">
<path fill-rule="evenodd" clip-rule="evenodd" d="M82.1531 23.4795H38.1122V89.1175C15.7997 97.8634 0 119.587 0 145V338C0 349.046 8.95431 358 20 358H100C111.046 358 120 349.046 120 338V145C120 119.687 104.325 98.0359 82.1531 89.2222V23.4795Z" fill="url(#paint0_linear_316_779)"/>
<rect x="33.8774" y="19.939" width="52.5102" height="11.8571" rx="5.92857" fill="#082E06"/>
<rect x="39" y="8" width="42" height="12" fill="#052404"/>
<rect x="33.8774" width="52.5102" height="11.8571" rx="5.92857" fill="#082E06"/>
<path d="M75.3774 287.725H166L156.461 374.959H84.9166L75.3774 287.725Z" fill="url(#paint1_linear_316_779)"/>
<path d="M85.5408 296.194H155.837L148.437 354.337H92.9403L85.5408 296.194Z" fill="url(#paint2_linear_316_779)"/>
<rect y="163" width="120" height="96" fill="white" fill-opacity="0.7"/>
<rect x="93" y="359" width="55" height="11" fill="white" fill-opacity="0.3"/>
<ellipse cx="84.0001" cy="123" rx="9" ry="15" transform="rotate(-35.317 84.0001 123)" fill="white" fill-opacity="0.28"/>
<defs>
<linearGradient id="paint0_linear_316_779" x1="60.1327" y1="23.4795" x2="101" y2="373.5" gradientUnits="userSpaceOnUse">
<stop stop-color="#5EE85B" stop-opacity="0.41"/>
<stop offset="1" stop-color="#459743"/>
</linearGradient>
<linearGradient id="paint1_linear_316_779" x1="120.689" y1="287.725" x2="120.689" y2="374.959" gradientUnits="userSpaceOnUse">
<stop stop-color="white"/>
<stop offset="0.0001" stop-color="white" stop-opacity="0.58"/>
<stop offset="1" stop-color="white" stop-opacity="0.63"/>
</linearGradient>
<linearGradient id="paint2_linear_316_779" x1="120.689" y1="299.582" x2="120.689" y2="367.337" gradientUnits="userSpaceOnUse">
<stop stop-color="#D7FFFD" stop-opacity="0.68"/>
<stop offset="1" stop-color="#D5FFFC"/>
</linearGradient>
</defs>
</svg>
