<svg width="217" height="227" viewBox="0 0 217 227" fill="none" xmlns="http://www.w3.org/2000/svg">
<path d="M0 0H216.712L215.022 179.053C215.022 205.422 193.797 226.799 167.615 226.799H49.0968C22.9144 226.799 1.68945 205.422 1.68945 179.053L0 0Z" fill="url(#paint0_linear_350_776)" fill-opacity="0.3"/>
<g filter="url(#filter0_b_350_776)">
<path d="M14.6121 1.20129H202.1L200.411 146.545C200.411 166.341 184.405 182.388 164.661 182.388H52.0509C32.3071 182.388 16.3015 166.341 16.3015 146.545L14.6121 1.20129Z" fill="url(#paint1_linear_350_776)"/>
</g>
<path d="M147.593 96.541C149.889 92.5507 154.985 91.1775 158.976 93.4739L186.81 109.492C190.8 111.788 192.173 116.885 189.877 120.875L173.659 149.055C171.363 153.046 166.266 154.419 162.276 152.122L134.442 136.104C130.452 133.808 129.079 128.712 131.375 124.721L147.593 96.541Z" fill="#DDFFFF" fill-opacity="0.2"/>
<path fill-rule="evenodd" clip-rule="evenodd" d="M186.513 110.008L158.679 93.9899C154.974 91.8576 150.241 93.1327 148.109 96.838L131.891 125.018C129.759 128.724 131.034 133.456 134.739 135.588L162.573 151.606C166.278 153.739 171.011 152.464 173.143 148.758L189.361 120.578C191.493 116.873 190.218 112.14 186.513 110.008ZM158.976 93.4739C154.985 91.1775 149.889 92.5507 147.593 96.541L131.375 124.721C129.079 128.712 130.452 133.808 134.442 136.104L162.276 152.122C166.266 154.419 171.363 153.046 173.659 149.055L189.877 120.875C192.173 116.885 190.8 111.788 186.81 109.492L158.976 93.4739Z" fill="white" fill-opacity="0.15"/>
<path d="M90.6986 93.6051C91.2957 89.0401 95.4804 85.8235 100.045 86.4207L131.888 90.5858C136.453 91.1829 139.67 95.3676 139.072 99.9326L134.855 132.172C134.258 136.737 130.074 139.953 125.509 139.356L93.6661 135.191C89.1011 134.594 85.8845 130.409 86.4816 125.844L90.6986 93.6051Z" fill="#DDFFFF" fill-opacity="0.2"/>
<path fill-rule="evenodd" clip-rule="evenodd" d="M131.811 91.1762L99.9682 87.0111C95.7293 86.4566 91.8435 89.4434 91.289 93.6823L87.072 125.921C86.5175 130.16 89.5044 134.046 93.7433 134.601L125.586 138.766C129.825 139.32 133.711 136.333 134.265 132.094L138.482 99.8554C139.037 95.6165 136.05 91.7307 131.811 91.1762ZM100.045 86.4207C95.4804 85.8235 91.2957 89.0401 90.6986 93.6051L86.4816 125.844C85.8845 130.409 89.1011 134.594 93.6661 135.191L125.509 139.356C130.074 139.953 134.258 136.737 134.855 132.172L139.072 99.9326C139.67 95.3676 136.453 91.1829 131.888 90.5858L100.045 86.4207Z" fill="white" fill-opacity="0.15"/>
<path d="M44.795 70.4792C43.3929 66.094 45.8113 61.4025 50.1964 60.0005L80.7849 50.2206C85.1701 48.8186 89.8616 51.2369 91.2636 55.6221L101.165 86.5914C102.567 90.9766 100.149 95.6681 95.7638 97.0702L65.1754 106.85C60.7902 108.252 56.0987 105.834 54.6966 101.449L44.795 70.4792Z" fill="#DDFFFF" fill-opacity="0.2"/>
<path fill-rule="evenodd" clip-rule="evenodd" d="M80.8248 50.9941L50.2364 60.7739C46.1645 62.0758 43.9189 66.4322 45.2208 70.5042L55.1224 101.474C56.4243 105.545 60.7807 107.791 64.8527 106.489L95.4411 96.7093C99.5131 95.4074 101.759 91.051 100.457 86.979L90.5551 56.0097C89.2532 51.9378 84.8968 49.6922 80.8248 50.9941ZM50.0551 60.2068C45.6699 61.6088 43.2516 66.3003 44.6536 70.6855L54.5553 101.655C55.9573 106.04 60.6488 108.458 65.034 107.056L95.6224 97.2765C100.008 95.8744 102.426 91.1829 101.024 86.7977L91.1222 55.8284C89.7202 51.4432 85.0287 49.0249 80.6435 50.4269L50.0551 60.2068Z" fill="white" fill-opacity="0.15"/>
<path d="M105.339 125.73C106.53 121.283 111.101 118.644 115.548 119.836L146.735 128.192C151.182 129.384 153.821 133.955 152.629 138.402L144.273 169.589C143.081 174.036 138.51 176.675 134.063 175.483L102.877 167.127C98.4296 165.935 95.7905 161.364 96.9821 156.917L105.339 125.73Z" fill="#DDFFFF" fill-opacity="0.2"/>
<path fill-rule="evenodd" clip-rule="evenodd" d="M146.581 128.767L115.394 120.411C111.265 119.304 107.02 121.755 105.914 125.884L97.5572 157.071C96.4508 161.201 98.9013 165.445 103.031 166.551L134.217 174.908C138.347 176.014 142.591 173.564 143.698 169.435L152.054 138.248C153.161 134.118 150.71 129.874 146.581 128.767ZM115.548 119.836C111.101 118.644 106.53 121.283 105.339 125.73L96.9821 156.917C95.7905 161.364 98.4296 165.935 102.877 167.127L134.063 175.483C138.51 176.675 143.081 174.036 144.273 169.589L152.629 138.402C153.821 133.955 151.182 129.384 146.735 128.192L115.548 119.836Z" fill="white" fill-opacity="0.15"/>
<path d="M76.2927 116.887C80.2004 114.453 85.3415 115.647 87.7758 119.555L104.848 146.959C107.282 150.867 106.087 156.008 102.18 158.443L74.7752 175.514C70.8676 177.949 65.7264 176.754 63.2921 172.847L46.2204 145.442C43.7861 141.534 44.9805 136.393 48.8882 133.959L76.2927 116.887Z" fill="#DDFFFF" fill-opacity="0.2"/>
<path fill-rule="evenodd" clip-rule="evenodd" d="M104.342 147.274L87.2704 119.87C85.01 116.241 80.2361 115.132 76.6075 117.393L49.203 134.464C45.5745 136.725 44.4654 141.499 46.7258 145.127L63.7975 172.532C66.0579 176.16 70.8318 177.269 74.4604 175.009L101.865 157.937C105.493 155.677 106.603 150.903 104.342 147.274ZM87.7758 119.555C85.3415 115.647 80.2004 114.453 76.2927 116.887L48.8882 133.959C44.9805 136.393 43.7861 141.534 46.2204 145.442L63.2921 172.847C65.7264 176.754 70.8676 177.949 74.7752 175.514L102.18 158.443C106.087 156.008 107.282 150.867 104.848 146.959L87.7758 119.555Z" fill="white" fill-opacity="0.15"/>
<path d="M65.0758 81.139C69.5602 80.0971 74.0402 82.8879 75.082 87.3723L82.3888 118.822C83.4306 123.306 80.6399 127.786 76.1555 128.828L44.7061 136.135C40.2217 137.176 35.7417 134.386 34.6998 129.901L27.3931 98.452C26.3513 93.9675 29.142 89.4876 33.6264 88.4457L65.0758 81.139Z" fill="#DDFFFF" fill-opacity="0.2"/>
<path fill-rule="evenodd" clip-rule="evenodd" d="M81.8088 118.956L74.5021 87.507C73.5346 83.3429 69.3746 80.7515 65.2105 81.719L33.7612 89.0257C29.5971 89.9931 27.0057 94.1531 27.9731 98.3172L35.2798 129.767C36.2473 133.931 40.4073 136.522 44.5714 135.555L76.0207 128.248C80.1848 127.28 82.7762 123.12 81.8088 118.956ZM75.082 87.3723C74.0402 82.8879 69.5602 80.0971 65.0758 81.139L33.6264 88.4457C29.142 89.4876 26.3513 93.9675 27.3931 98.452L34.6998 129.901C35.7417 134.386 40.2217 137.176 44.7061 136.135L76.1555 128.828C80.6399 127.786 83.4306 123.306 82.3888 118.822L75.082 87.3723Z" fill="white" fill-opacity="0.15"/>
<defs>
<filter id="filter0_b_350_776" x="-85.3879" y="-98.7987" width="387.488" height="381.187" filterUnits="userSpaceOnUse" color-interpolation-filters="sRGB">
<feFlood flood-opacity="0" result="BackgroundImageFix"/>
<feGaussianBlur in="BackgroundImageFix" stdDeviation="50"/>
<feComposite in2="SourceAlpha" operator="in" result="effect1_backgroundBlur_350_776"/>
<feBlend mode="normal" in="SourceGraphic" in2="effect1_backgroundBlur_350_776" result="shape"/>
</filter>
<linearGradient id="paint0_linear_350_776" x1="108.356" y1="-105.5" x2="108.356" y2="266" gradientUnits="userSpaceOnUse">
<stop offset="0.811438" stop-color="white" stop-opacity="0.6"/>
<stop offset="1" stop-color="white"/>
</linearGradient>
<linearGradient id="paint1_linear_350_776" x1="108.356" y1="-24" x2="108.356" y2="182.388" gradientUnits="userSpaceOnUse">
<stop stop-color="#FFD494"/>
<stop offset="1" stop-color="#FF9F10"/>
</linearGradient>
</defs>
</svg>
